<svg width="110" height="38" viewBox="0 0 110 38" fill="none" xmlns="http://www.w3.org/2000/svg">
<path d="M101.955 5.44423C102.732 4.94539 104.536 4.69342 105.083 5.43674C105.644 6.20128 104.729 7.66379 103.952 8.16263L101.303 9.86333L101.764 15.0649C101.789 15.3583 101.645 15.6446 101.384 15.8123L100.107 16.632C99.8662 16.7866 99.5321 16.6823 99.4388 16.4234L97.8766 12.0629L95.5385 13.5638L95.4558 15.4171C95.4496 15.5461 95.3793 15.6662 95.2648 15.7398L94.3112 16.3519C94.1352 16.4649 93.8941 16.4228 93.7599 16.2401C93.7536 16.2316 93.7375 16.2014 93.7253 16.1685L92.722 13.3714L90.2891 11.492C90.2606 11.4697 90.2362 11.4447 90.2159 11.4171C90.0958 11.2536 90.1402 11.0281 90.3163 10.9151L91.2699 10.303C91.3844 10.2294 91.5296 10.2113 91.6606 10.2522L93.541 10.8454L95.8791 9.34447L92.0856 6.41628C91.8601 6.24132 91.8763 5.91303 92.1172 5.75842L93.3941 4.93869C93.6554 4.77096 93.9923 4.74702 94.2774 4.87556L99.3055 7.14493L101.955 5.44423Z" fill="#EC502C"/>
<path d="M9.648 14.4462C11.216 14.4462 12.464 14.9582 13.392 15.9822C14.336 16.9902 14.808 18.3822 14.808 20.1582V27.9822H10.728V20.7102C10.728 19.8142 10.496 19.1182 10.032 18.6222C9.568 18.1262 8.944 17.8782 8.16 17.8782C7.376 17.8782 6.752 18.1262 6.288 18.6222C5.824 19.1182 5.592 19.8142 5.592 20.7102V27.9822H1.488V14.5902H5.592V16.3662C6.008 15.7742 6.568 15.3102 7.272 14.9742C7.976 14.6222 8.768 14.4462 9.648 14.4462ZM16.8439 21.2622C16.8439 19.8862 17.0999 18.6782 17.6119 17.6382C18.1399 16.5982 18.8519 15.7982 19.7479 15.2382C20.6439 14.6782 21.6439 14.3982 22.7479 14.3982C23.6919 14.3982 24.5159 14.5902 25.2199 14.9742C25.9399 15.3582 26.4919 15.8622 26.8759 16.4862V14.5902H30.9799V27.9822H26.8759V26.0862C26.4759 26.7102 25.9159 27.2142 25.1959 27.5982C24.4919 27.9822 23.6679 28.1742 22.7239 28.1742C21.6359 28.1742 20.6439 27.8942 19.7479 27.3342C18.8519 26.7582 18.1399 25.9502 17.6119 24.9102C17.0999 23.8542 16.8439 22.6382 16.8439 21.2622ZM26.8759 21.2862C26.8759 20.2622 26.5879 19.4542 26.0119 18.8622C25.4519 18.2702 24.7639 17.9742 23.9479 17.9742C23.1319 17.9742 22.4359 18.2702 21.8599 18.8622C21.2999 19.4382 21.0199 20.2382 21.0199 21.2622C21.0199 22.2862 21.2999 23.1022 21.8599 23.7102C22.4359 24.3022 23.1319 24.5982 23.9479 24.5982C24.7639 24.5982 25.4519 24.3022 26.0119 23.7102C26.5879 23.1182 26.8759 22.3102 26.8759 21.2862ZM39.9729 24.1422L42.8769 14.5902H47.2449L42.4929 27.9822H37.4289L32.6769 14.5902H37.0689L39.9729 24.1422ZM68.0524 11.1342V27.9822H63.9484V17.8782L60.1804 27.9822H56.8684L53.0764 17.8542V27.9822H48.9724V11.1342H53.8204L58.5484 22.7982L63.2284 11.1342H68.0524ZM73.4756 18.5742C71.9716 17.7742 71.2196 16.5182 71.2196 14.8062C71.2196 13.9422 71.4436 13.1582 71.8916 12.4542C72.3396 11.7342 73.0196 11.1662 73.9316 10.7502C74.8436 10.3182 75.9636 10.1022 77.2916 10.1022C78.6196 10.1022 79.7316 10.3182 80.6276 10.7502C81.5396 11.1662 82.2196 11.7342 82.6676 12.4542C83.1156 13.1582 83.3396 13.9422 83.3396 14.8062C83.3396 15.6702 83.1316 16.4222 82.7156 17.0622C82.3156 17.7022 81.7716 18.2062 81.0836 18.5742C81.9476 18.9902 82.6116 19.5662 83.0756 20.3022C83.5396 21.0222 83.7716 21.8702 83.7716 22.8462C83.7716 23.9822 83.4836 24.9662 82.9076 25.7982C82.3316 26.6142 81.5476 27.2382 80.5556 27.6702C79.5796 28.1022 78.4916 28.3182 77.2916 28.3182C76.0916 28.3182 74.9956 28.1022 74.0036 27.6702C73.0276 27.2382 72.2516 26.6142 71.6756 25.7982C71.0996 24.9662 70.8116 23.9822 70.8116 22.8462C70.8116 21.8542 71.0436 20.9982 71.5076 20.2782C71.9716 19.5422 72.6276 18.9742 73.4756 18.5742ZM79.3556 15.4302C79.3556 14.7742 79.1636 14.2702 78.7796 13.9182C78.4116 13.5502 77.9156 13.3662 77.2916 13.3662C76.6676 13.3662 76.1636 13.5502 75.7796 13.9182C75.4116 14.2862 75.2276 14.7982 75.2276 15.4542C75.2276 16.0782 75.4196 16.5742 75.8036 16.9422C76.1876 17.2942 76.6836 17.4702 77.2916 17.4702C77.8996 17.4702 78.3956 17.2862 78.7796 16.9182C79.1636 16.5502 79.3556 16.0542 79.3556 15.4302ZM77.2916 20.3502C76.5396 20.3502 75.9316 20.5582 75.4676 20.9742C75.0036 21.3742 74.7716 21.9342 74.7716 22.6542C74.7716 23.3262 74.9956 23.8782 75.4436 24.3102C75.9076 24.7422 76.5236 24.9582 77.2916 24.9582C78.0596 24.9582 78.6596 24.7422 79.0916 24.3102C79.5396 23.8782 79.7636 23.3262 79.7636 22.6542C79.7636 21.9502 79.5316 21.3902 79.0676 20.9742C78.6196 20.5582 78.0276 20.3502 77.2916 20.3502Z" fill="white"/>
</svg>
